<?xml version="1.0" standalone="no"?>
<!DOCTYPE svg PUBLIC "-//W3C//DTD SVG 20010904//EN"
 "http://www.w3.org/TR/2001/REC-SVG-20010904/DTD/svg10.dtd">
<svg version="1.0" xmlns="http://www.w3.org/2000/svg"
 width="1123.000000pt" height="1123.000000pt" viewBox="0 0 1123.000000 1123.000000"
 preserveAspectRatio="xMidYMid meet">
<metadata>
Created by potrace 1.14, written by Peter Selinger 2001-2017
</metadata>
<g transform="translate(0.000000,1123.000000) scale(0.100000,-0.100000)"
fill="#000000" stroke="none">
<path d="M3320 9939 c-205 -24 -511 -115 -705 -209 -109 -53 -215 -127 -264
-187 -33 -39 -111 -188 -111 -214 -1 -8 -18 -49 -39 -93 l-38 -78 31 -19 c17
-11 43 -25 59 -32 15 -6 27 -15 27 -19 0 -5 4 -8 10 -8 5 0 48 -23 95 -51 48
-28 88 -49 91 -47 2 3 31 75 64 162 33 87 72 179 87 204 107 183 424 351 788
417 191 35 492 20 705 -35 19 -5 51 -12 70 -15 19 -3 35 -7 37 -8 1 -2 -11
-44 -27 -95 -32 -98 -34 -118 -46 -487 -7 -246 -13 -348 -28 -490 -2 -16 -7
-61 -11 -100 -4 -38 -9 -72 -12 -75 -3 -3 -98 -5 -211 -6 -190 -1 -365 -9
-402 -19 -8 -2 -37 -6 -65 -10 -159 -19 -318 -79 -417 -157 -43 -34 -78 -100
-78 -149 0 -36 40 -109 76 -140 61 -53 237 -138 319 -155 35 -7 128 -23 175
-30 140 -20 381 -6 503 30 l49 14 -6 -56 c-13 -129 -73 -322 -134 -432 -94
-170 -247 -297 -466 -386 -343 -140 -592 -58 -622 205 -11 100 3 182 42 246
33 56 36 75 11 75 -23 0 -76 -102 -85 -163 -22 -142 9 -259 89 -338 41 -41
159 -104 209 -113 14 -2 54 -9 90 -16 94 -17 306 -15 410 5 103 20 233 68 304
112 71 46 178 163 229 253 66 119 122 298 142 459 4 30 8 62 10 71 2 9 6 53
10 96 5 64 10 82 28 97 12 10 58 45 102 79 43 34 91 72 105 84 14 12 36 32 50
44 14 12 53 49 87 82 l63 60 57 -32 c77 -44 201 -144 243 -196 18 -23 62 -97
97 -164 111 -215 224 -350 378 -452 150 -99 199 -117 380 -143 22 -3 46 -8 54
-11 15 -5 119 -9 501 -21 220 -7 682 -8 1905 -4 598 2 854 -7 1055 -34 l45 -6
-40 27 c-22 15 -62 47 -89 71 -54 48 -65 50 -160 28 -90 -21 -151 -27 -381
-40 -66 -4 -138 -9 -160 -11 -83 -7 -602 -15 -1195 -17 -671 -2 -1217 9 -1355
27 -22 3 -67 8 -100 11 -70 7 -98 12 -123 19 -9 3 -33 7 -52 10 -67 10 -166
46 -215 78 -68 45 -192 170 -247 248 -25 36 -70 117 -101 180 -40 85 -71 132
-115 181 -60 65 -206 176 -310 235 l-54 31 57 49 c32 27 62 54 69 59 6 6 65
53 131 105 66 52 122 97 125 100 3 3 27 24 55 45 27 22 55 45 61 50 6 6 37 33
69 60 32 28 70 61 84 75 15 14 62 56 106 94 103 90 176 167 222 236 58 87 141
197 169 225 25 25 25 27 8 39 -16 12 -25 6 -79 -48 -34 -33 -106 -117 -160
-186 -54 -69 -101 -127 -104 -130 -3 -3 -26 -27 -51 -55 -68 -76 -142 -138
-290 -243 -74 -52 -186 -132 -249 -176 -62 -44 -159 -120 -216 -167 -57 -48
-105 -86 -107 -84 -7 7 -177 54 -219 60 -24 4 -51 9 -59 10 -8 2 -19 4 -23 4
-5 1 -5 47 0 104 4 56 8 161 8 232 0 117 -3 167 -21 356 -11 120 -9 528 3 540
8 8 23 9 60 0 93 -21 202 -39 363 -58 85 -10 496 -10 580 0 104 13 257 47 370
82 58 18 152 45 209 59 116 30 127 34 114 47 -6 6 -51 0 -114 -16 -57 -13
-120 -27 -139 -29 -19 -3 -51 -7 -70 -10 -243 -37 -824 -43 -1070 -11 -116 16
-403 75 -530 111 -58 16 -221 55 -250 60 -19 3 -42 7 -50 9 -8 3 -33 7 -55 10
-22 4 -53 9 -70 12 -49 8 -285 10 -355 2z m768 -1518 c13 0 21 -4 19 -8 -3 -5
-8 -46 -12 -93 -3 -47 -8 -105 -10 -130 -2 -25 -7 -85 -10 -135 -9 -146 -6
-140 -88 -169 -136 -48 -186 -56 -357 -61 -287 -7 -524 65 -581 177 -66 128
33 267 245 344 85 31 250 63 356 71 47 3 86 6 87 7 3 2 312 0 351 -3z m347
-36 c44 -9 105 -22 135 -31 l55 -16 -30 -25 c-17 -14 -61 -56 -100 -92 -65
-63 -181 -161 -190 -161 -2 0 -2 19 0 43 2 23 7 91 11 151 5 92 9 129 13 144
2 5 29 2 106 -13z"/>
<path d="M6745 8006 c-17 -7 -47 -28 -66 -47 -33 -31 -39 -46 -68 -169 -17
-74 -34 -144 -37 -155 -5 -18 0 -21 33 -22 55 -2 130 41 154 90 29 56 36 129
14 147 -15 13 -23 11 -66 -13 l-49 -27 6 27 c25 114 37 135 80 140 35 5 52 19
39 32 -6 6 -22 5 -40 -3z m-7 -224 c2 -17 -6 -52 -17 -77 -21 -48 -54 -69 -82
-54 -16 8 -16 14 -1 70 12 49 21 65 46 80 39 24 50 20 54 -19z"/>
<path d="M8215 8012 c-38 -13 -73 -43 -89 -76 -15 -33 -76 -273 -76 -302 0
-28 30 -26 80 6 56 36 69 61 15 29 -50 -30 -52 -13 -17 133 42 171 44 176 84
180 22 2 34 9 36 21 4 18 -1 19 -33 9z"/>
<path d="M6361 8001 c-10 -6 -11 -13 -2 -29 6 -11 11 -30 11 -41 0 -34 -40
-114 -88 -176 -73 -94 -71 -94 -67 -23 10 148 9 212 -2 215 -6 2 -52 -56 -103
-129 l-91 -133 5 50 c10 95 34 189 52 202 14 10 5 12 -59 9 -41 -3 -85 -9 -96
-15 -48 -26 -73 -88 -55 -135 5 -14 8 -14 30 0 19 13 22 20 14 34 -23 44 -8
78 41 89 52 12 58 7 47 -47 -5 -26 -13 -76 -18 -112 -13 -83 -19 -122 -25
-137 -2 -8 4 -13 14 -13 17 0 109 117 180 230 l23 35 -6 -132 c-4 -112 -2
-133 10 -133 8 0 21 8 29 18 58 69 160 204 180 238 25 42 38 104 28 130 -6 16
-31 18 -52 5z"/>
<path d="M7112 7955 c-58 -19 -114 -52 -134 -80 -24 -32 -35 -105 -17 -105 28
0 42 19 44 59 3 58 26 82 102 105 26 8 26 15 -10 -124 -37 -138 -46 -156 -92
-161 -17 -2 -45 -19 -45 -28 0 -4 46 -7 103 -5 83 2 113 7 152 25 67 31 111
79 129 138 31 105 -2 159 -107 176 -18 3 -43 7 -57 9 -14 2 -44 -2 -68 -9z
m166 -48 c33 -33 33 -110 0 -176 -34 -68 -64 -85 -154 -88 l-75 -2 35 40 c27
32 40 63 63 151 l28 110 39 -5 c23 -3 49 -16 64 -30z"/>
<path d="M7793 7862 c-7 -4 -11 -21 -9 -37 9 -84 -77 -210 -118 -175 -26 21 2
117 45 156 10 9 19 20 19 24 0 5 -93 6 -121 1 -4 0 -10 -12 -13 -25 -3 -13 -9
-31 -12 -40 -3 -9 -2 -16 4 -16 5 0 13 11 16 25 5 21 12 25 41 25 l35 0 -32
-45 c-24 -35 -32 -56 -32 -92 -1 -45 1 -48 27 -51 34 -4 97 36 130 82 66 92
79 206 20 168z"/>
<path d="M6470 7849 c-58 -24 -98 -86 -105 -167 -7 -87 58 -98 150 -24 15 12
25 25 21 29 -4 4 -10 3 -14 -3 -4 -6 -22 -19 -40 -30 -63 -36 -100 25 -40 67
62 42 88 72 88 100 0 21 -20 44 -33 38 -1 0 -13 -5 -27 -10z m18 -43 c3 -15
-65 -92 -74 -83 -2 2 1 20 7 40 16 60 59 87 67 43z"/>
<path d="M7447 7826 c-42 -32 -63 -73 -71 -139 -6 -53 8 -77 47 -77 35 0 127
53 127 72 0 6 -10 3 -22 -6 -59 -42 -100 -42 -106 2 -2 15 9 29 42 51 62 43
87 77 77 104 -12 32 -47 29 -94 -7z m51 -19 c4 -17 -48 -77 -67 -77 -14 0 4
58 25 82 20 21 38 19 42 -5z"/>
<path d="M7944 7847 c-56 -30 -89 -82 -99 -161 -11 -80 45 -99 127 -43 62 42
62 55 -1 20 -41 -24 -51 -26 -65 -14 -25 21 -19 48 17 72 62 43 87 72 87 101
0 15 -3 28 -7 29 -5 0 -15 2 -24 4 -8 1 -24 -2 -35 -8z m24 -41 c3 -15 -65
-92 -74 -83 -7 7 16 70 32 89 20 21 38 19 42 -6z"/>
<path d="M8327 7850 c-44 -13 -92 -55 -112 -96 -21 -46 -24 -122 -4 -135 23
-16 88 -2 124 26 67 50 98 161 57 198 -20 19 -24 19 -65 7z m26 -41 c29 -40
-4 -141 -53 -166 -66 -33 -77 92 -15 160 31 32 49 34 68 6z"/>
<path d="M8482 7829 c-30 -17 -52 -33 -49 -36 3 -2 14 0 25 6 24 13 33 5 27
-23 -25 -129 -69 -286 -81 -286 -7 0 -16 -4 -19 -10 -4 -6 20 -10 66 -10 40 0
69 3 65 8 -8 7 -13 8 -41 11 -16 1 -15 18 7 89 8 26 15 32 37 32 32 0 104 48
122 82 17 32 35 109 31 135 -6 41 -40 38 -113 -10 l-26 -17 5 30 c2 16 3 30 1
30 -2 0 -28 -14 -57 -31z m146 -37 c5 -35 -18 -103 -44 -129 -19 -19 -31 -23
-52 -18 -15 4 -28 8 -30 9 -1 2 3 26 9 55 11 52 36 85 74 101 28 12 39 7 43
-18z"/>
<path d="M8809 7852 c-56 -25 -94 -83 -105 -162 -8 -54 9 -80 50 -80 31 0 104
42 121 69 9 16 -11 13 -25 -3 -6 -8 -28 -20 -47 -27 -31 -10 -38 -9 -49 5 -18
26 -6 48 44 82 57 37 82 76 66 101 -13 20 -31 25 -55 15z m17 -45 c1 -9 -11
-31 -28 -47 -50 -51 -62 -37 -27 31 21 42 50 50 55 16z"/>
<path d="M8948 7834 c-49 -25 -64 -40 -28 -29 11 3 24 4 29 1 4 -3 -2 -47 -15
-97 -14 -51 -23 -93 -22 -94 2 -2 12 1 24 5 13 5 24 21 27 39 25 126 57 173
100 149 14 -7 19 -4 26 14 14 36 -3 43 -48 20 -27 -15 -38 -17 -35 -8 9 25
-10 24 -58 0z"/>
</g>
</svg>
